<?xml version="1.0" encoding="utf-8"?>
<!-- Generator: Adobe Illustrator 17.1.0, SVG Export Plug-In . SVG Version: 6.00 Build 0)  -->
<!DOCTYPE svg PUBLIC "-//W3C//DTD SVG 1.1//EN" "http://www.w3.org/Graphics/SVG/1.1/DTD/svg11.dtd">
<svg version="1.1" id="Layer_1" xmlns="http://www.w3.org/2000/svg" xmlns:xlink="http://www.w3.org/1999/xlink" x="0px" y="0px"
	 viewBox="0 0 2012.2 277.1" enable-background="new 0 0 2012.2 277.1" xml:space="preserve">
<path fill="#1C1A1D" d="M1518.4,277.1c0,0,107.3-130.7,114-130.7s147.3,130.7,147.3,130.7H1518.4z"/>
<path fill="#0F0F10" d="M1779.8,277.1h-142c0,0-10.1-133.6-5.3-130.7S1779.8,277.1,1779.8,277.1z"/>
<path fill="#1C1A1D" d="M1651.9,277.1c0,0,57.3-81.8,60.8-81.8s78.6,81.8,78.6,81.8H1651.9z"/>
<path fill="#0F0F10" d="M1791.4,277.1h-75.8c0,0-5.4-83.7-2.8-81.8S1791.4,277.1,1791.4,277.1z"/>
<path fill="#1C1A1D" d="M2012.2,277.1c0,0-104.3-122.7-108.5-122.7c-4.3,0-81.2,122.7-81.2,122.7H2012.2z"/>
<path fill="#0F0F10" d="M1822.4,277.1h90.8c0,0-6.4-125.5-9.5-122.7C1900.6,157.1,1822.4,277.1,1822.4,277.1z"/>
<path fill="#0F0F10" d="M1759.1,277.1c0,0,72.8-100.8,76.8-100.8s81.5,100.8,81.5,100.8H1759.1z"/>
<path fill="#0F0F10" d="M1346.9,249.2c0,0,79.5-75,83-75s118.7,102.8,118.7,102.8h-201.7V249.2z"/>
<path fill="#110F13" d="M1429.8,174.2v102.8h118.7C1548.6,277.1,1434.4,174.2,1429.8,174.2z"/>
<path fill="#0F0F10" d="M1507,237.4c0,0,30.7-41,34.1-41s76.1,80.7,76.1,80.7h-142.6L1507,237.4z"/>
<path d="M1825,277c0,0-44.3-65.3-50.6-65.3s-46.6,65.3-46.6,65.3H1825z"/>
<path fill="#110F13" d="M974.7,277.1c0,0,107.3-130.7,114-130.7c6.7,0,147.3,130.7,147.3,130.7H974.7z"/>
<path fill="#0F0F10" d="M1236.1,277.1h-142c0,0-10.1-133.6-5.3-130.7S1236.1,277.1,1236.1,277.1z"/>
<path fill="#1C1A1D" d="M1108.2,277.1c0,0,57.3-81.8,60.8-81.8s78.6,81.8,78.6,81.8H1108.2z"/>
<path fill="#0F0F10" d="M1247.7,277.1h-75.8c0,0-5.4-83.7-2.8-81.8C1171.6,197.1,1247.7,277.1,1247.7,277.1z"/>
<path fill="#1C1A1D" d="M1468.4,277.1c0,0-104.3-122.7-108.5-122.7c-4.3,0-81.2,122.7-81.2,122.7H1468.4z"/>
<path fill="#0F0F10" d="M1278.7,277.1h90.8c0,0-6.4-125.5-9.5-122.7C1356.9,157.1,1278.7,277.1,1278.7,277.1z"/>
<path fill="#1C1A1D" d="M1207.7,277.1c0,0,61.9-85.8,65.3-85.8s69.3,85.8,69.3,85.8H1207.7z"/>
<path fill="#0F0F10" d="M803.1,249.3c0,0,79.5-75,83-75s118.7,102.8,118.7,102.8H803.1V249.3z"/>
<path fill="#1C1A1D" d="M886.1,174.3v102.8h118.7C1004.8,277.1,890.6,174.3,886.1,174.3z"/>
<path d="M977.9,227.6c0,0,30.3-51.3,33.6-51.3s75,100.8,75,100.8H946L977.9,227.6z"/>
<path d="M939.9,242.7c0,0,20.9-35,23.3-35c2.3,0,51.9,68.8,51.9,68.8h-97.2L939.9,242.7z"/>
<path fill="#1C1A1D" d="M1281.2,277.1c0,0-44.3-65.3-50.6-65.3s-46.6,65.3-46.6,65.3H1281.2z"/>
<path fill="#110F13" d="M410.2,277.1c0,0,107.3-130.7,114-130.7s147.3,130.7,147.3,130.7H410.2z"/>
<path fill="#0F0F10" d="M671.6,277.1h-142c0,0-10.1-133.6-5.3-130.7S671.6,277.1,671.6,277.1z"/>
<path fill="#1C1A1D" d="M543.7,277.1c0,0,57.3-81.8,60.8-81.8s78.6,81.8,78.6,81.8H543.7z"/>
<path fill="#0F0F10" d="M683.2,277.1h-75.8c0,0-5.4-83.7-2.8-81.8S683.2,277.1,683.2,277.1z"/>
<path fill="#1C1A1D" d="M904,277c0,0-104.3-122.7-108.5-122.7c-4.3,0-81.2,122.7-81.2,122.7H904z"/>
<path fill="#0F0F10" d="M714.2,277H805c0,0-6.4-125.5-9.5-122.7C792.4,157.1,714.2,277,714.2,277z"/>
<path fill="#0F0F10" d="M650.9,277.1c0,0,72.8-100.8,76.8-100.8c4,0,81.5,100.8,81.5,100.8H650.9z"/>
<path fill="#0F0F10" d="M238.7,249.2c0,0,79.5-75,83-75c3.4,0,118.7,102.8,118.7,102.8H238.7V249.2z"/>
<path fill="#1C1A1D" d="M321.6,174.2V277h118.7C440.4,277,326.2,174.2,321.6,174.2z"/>
<path fill="#0F0F10" d="M398.8,237.4c0,0,30.7-41,34.1-41s76.1,80.7,76.1,80.7H366.5L398.8,237.4z"/>
<path d="M716.8,277c0,0-44.3-65.3-50.6-65.3c-6.2,0-46.6,65.3-46.6,65.3H716.8z"/>
<path fill="#1C1A1D" d="M0,277.1c0,0,57.3-81.8,60.8-81.8c3.6,0,78.6,81.8,78.6,81.8H0z"/>
<path fill="#0F0F10" d="M139.5,277.1H63.7c0,0-5.4-83.7-2.8-81.8S139.5,277.1,139.5,277.1z"/>
<path fill="#110F13" d="M360.2,277.1c0,0-104.3-122.7-108.5-122.7s-81.2,122.7-81.2,122.7H360.2z"/>
<path fill="#0F0F10" d="M170.5,277.1h90.8c0,0-6.4-125.5-9.5-122.7C248.7,157.1,170.5,277.1,170.5,277.1z"/>
<path fill="#1C1A1D" d="M99.5,277.1c0,0,61.9-85.8,65.3-85.8s69.3,85.8,69.3,85.8H99.5z"/>
<path fill="#1C1A1D" d="M173,277c0,0-44.3-65.3-50.6-65.3S75.9,277,75.9,277H173z"/>
<rect x="54" fill="none" width="1920" height="277"/>
</svg>
