<?xml version="1.0" encoding="utf-8"?>
<!-- Generator: Adobe Illustrator 18.0.0, SVG Export Plug-In . SVG Version: 6.00 Build 0)  -->
<!DOCTYPE svg PUBLIC "-//W3C//DTD SVG 1.1//EN" "http://www.w3.org/Graphics/SVG/1.1/DTD/svg11.dtd">
<svg version="1.1" id="Layer_1" xmlns="http://www.w3.org/2000/svg" xmlns:xlink="http://www.w3.org/1999/xlink" x="0px" y="0px"
	 viewBox="0 0 1920 1080" enable-background="new 0 0 1920 1080" xml:space="preserve">
<path fill="#241D29" d="M1464.4,1080.1c0,0,107.3-130.7,114-130.7c6.7,0,147.3,130.7,147.3,130.7H1464.4z"/>
<path fill="#0F0F10" d="M1725.7,1080.1h-142c0,0-10.1-133.6-5.3-130.7S1725.7,1080.1,1725.7,1080.1z"/>
<path fill="#241D29" d="M1597.9,1080.1c0,0,57.3-81.8,60.8-81.8c3.6,0,78.6,81.8,78.6,81.8H1597.9z"/>
<path fill="#0F0F10" d="M1737.3,1080.1h-75.8c0,0-5.4-83.7-2.8-81.8C1661.3,1000.1,1737.3,1080.1,1737.3,1080.1z"/>
<path fill="#241D29" d="M1958.1,1080.1c0,0-104.3-122.7-108.5-122.7s-81.2,122.7-81.2,122.7H1958.1z"/>
<path fill="#0F0F10" d="M1768.4,1080.1h90.8c0,0-6.4-125.5-9.5-122.7C1846.5,960.1,1768.4,1080.1,1768.4,1080.1z"/>
<path fill="#0F0F10" d="M1705,1080.1c0,0,72.8-100.8,76.8-100.8c4,0,81.5,100.8,81.5,100.8H1705z"/>
<path fill="#0F0F10" d="M1292.8,1052.2c0,0,79.5-75,83-75s118.7,102.8,118.7,102.8h-201.7V1052.2z"/>
<path fill="#241D29" d="M1375.8,977.2v102.8h118.7C1494.5,1080.1,1380.3,977.2,1375.8,977.2z"/>
<path fill="#0F0F10" d="M1453,1040.4c0,0,30.7-41,34.1-41s76.1,80.7,76.1,80.7h-142.6L1453,1040.4z"/>
<path fill="#222123" d="M1770.9,1080c0,0-44.3-65.3-50.6-65.3c-6.2,0-46.6,65.3-46.6,65.3H1770.9z"/>
<path fill="#241D29" d="M920.7,1080.1c0,0,107.3-130.7,114-130.7s147.3,130.7,147.3,130.7H920.7z"/>
<path fill="#0F0F10" d="M1182,1080.1h-142c0,0-10.1-133.6-5.3-130.7S1182,1080.1,1182,1080.1z"/>
<path fill="#241D29" d="M1054.1,1080.1c0,0,57.3-81.8,60.8-81.8s78.6,81.8,78.6,81.8H1054.1z"/>
<path fill="#0F0F10" d="M1193.6,1080.1h-75.8c0,0-5.4-83.7-2.8-81.8C1117.5,1000.1,1193.6,1080.1,1193.6,1080.1z"/>
<path fill="#241D29" d="M1414.4,1080.1c0,0-104.3-122.7-108.5-122.7s-81.2,122.7-81.2,122.7H1414.4z"/>
<path fill="#0F0F10" d="M1224.6,1080.1h90.8c0,0-6.4-125.5-9.5-122.7C1302.8,960.1,1224.6,1080.1,1224.6,1080.1z"/>
<path fill="#241D29" d="M1153.6,1080.1c0,0,61.9-85.8,65.3-85.8c3.4,0,69.3,85.8,69.3,85.8H1153.6z"/>
<path fill="#0F0F10" d="M749.1,1052.3c0,0,79.5-75,83-75c3.4,0,118.7,102.8,118.7,102.8H749.1V1052.3z"/>
<path fill="#241D29" d="M832,977.3v102.8h118.7C950.8,1080.1,836.6,977.3,832,977.3z"/>
<path fill="#222123" d="M923.8,1030.6c0,0,30.3-51.3,33.6-51.3s75,100.8,75,100.8H892L923.8,1030.6z"/>
<path fill="#222123" d="M885.9,1045.7c0,0,20.9-35,23.3-35c2.3,0,51.9,68.8,51.9,68.8h-97.2L885.9,1045.7z"/>
<path fill="#241D29" d="M1227.2,1080.1c0,0-44.3-65.3-50.6-65.3c-6.2,0-46.6,65.3-46.6,65.3H1227.2z"/>
<path fill="#241D29" d="M356.2,1080.1c0,0,107.3-130.7,114-130.7c6.7,0,147.3,130.7,147.3,130.7H356.2z"/>
<path fill="#0F0F10" d="M617.5,1080.1h-142c0,0-10.1-133.6-5.3-130.7C475,952.3,617.5,1080.1,617.5,1080.1z"/>
<path fill="#241D29" d="M489.7,1080.1c0,0,57.3-81.8,60.8-81.8c3.6,0,78.6,81.8,78.6,81.8H489.7z"/>
<path fill="#0F0F10" d="M629.1,1080.1h-75.8c0,0-5.4-83.7-2.8-81.8C553.1,1000.1,629.1,1080.1,629.1,1080.1z"/>
<path fill="#241D29" d="M849.9,1080c0,0-104.3-122.7-108.5-122.7S660.2,1080,660.2,1080H849.9z"/>
<path fill="#0F0F10" d="M660.2,1080h90.8c0,0-6.4-125.5-9.5-122.7S660.2,1080,660.2,1080z"/>
<path fill="#0F0F10" d="M596.8,1080.1c0,0,72.8-100.8,76.8-100.8s81.5,100.8,81.5,100.8H596.8z"/>
<path fill="#0F0F10" d="M184.6,1052.2c0,0,79.5-75,83-75c3.4,0,118.7,102.8,118.7,102.8H184.6V1052.2z"/>
<path fill="#241D29" d="M267.6,977.2V1080h118.7C386.3,1080,272.1,977.2,267.6,977.2z"/>
<path fill="#0F0F10" d="M344.8,1040.4c0,0,30.7-41,34.1-41c3.4,0,76.1,80.7,76.1,80.7H312.4L344.8,1040.4z"/>
<path fill="#222123" d="M662.7,1080c0,0-44.3-65.3-50.6-65.3c-6.2,0-46.6,65.3-46.6,65.3H662.7z"/>
<path fill="#241D29" d="M-54,1080.1c0,0,57.3-81.8,60.8-81.8s78.6,81.8,78.6,81.8H-54z"/>
<path fill="#0F0F10" d="M85.4,1080.1H9.6c0,0-5.4-83.7-2.8-81.8S85.4,1080.1,85.4,1080.1z"/>
<path fill="#241D29" d="M306.2,1080.1c0,0-104.3-122.7-108.5-122.7s-81.2,122.7-81.2,122.7H306.2z"/>
<path fill="#0F0F10" d="M116.4,1080.1h90.8c0,0-6.4-125.5-9.5-122.7S116.4,1080.1,116.4,1080.1z"/>
<path fill="#241D29" d="M45.4,1080.1c0,0,61.9-85.8,65.3-85.8c3.4,0,69.3,85.8,69.3,85.8H45.4z"/>
<path fill="#241D29" d="M119,1080c0,0-44.3-65.3-50.6-65.3S21.8,1080,21.8,1080H119z"/>
<rect y="803" fill="none" width="1920" height="277"/>
</svg>
